<?xml version="1.0" encoding="UTF-8"?>
<svg width="216px" height="35px" viewBox="0 0 216 35" version="1.1" xmlns="http://www.w3.org/2000/svg" xmlns:xlink="http://www.w3.org/1999/xlink">
    <title>Techtic_logo</title>
    <g id="Page-1" stroke="none" stroke-width="1" fill="none" fill-rule="evenodd">
        <g id="Techtic_logo" fill="#242652">
            <path d="M0,8.6 L9.191,8.6 L9.191,34.149 L18.515,34.149 L18.515,8.6 L27.706,8.6 L27.706,1.4 L0,1.4 L0,8.6 Z M42.61,20.89 L50.332,20.89 L50.332,13.7 L42.61,13.7 L42.61,8.6 L57.661,8.6 L57.661,1.4 L33.287,1.4 L33.287,34.149 L57.987,34.149 L57.987,26.949 L42.61,26.949 L42.61,20.895 L42.61,20.89 Z M136.191,8.6 L145.382,8.6 L145.382,34.149 L154.705,34.149 L154.705,8.6 L163.9,8.6 L163.9,1.4 L136.2,1.4 L136.2,8.6 L136.191,8.6 Z M170.021,34.144 L179.345,34.144 L179.345,1.407 L170.021,1.407 L170.021,34.149 L170.021,34.144 Z M214.9,23.217 C210.643,25.244 207.831,26.584 203.816,26.584 C197.644,26.584 193.334,22.944 193.334,17.732 C193.334,12.574 197.72,8.971 204,8.971 C207.708371,9.07725625 211.324421,10.1518325 214.489,12.088 L215.589,12.699 L215.589,4.063 L215.23,3.85 C211.626126,1.86821945 207.559315,0.882409556 203.448,0.994 C190.537,0.994 183.782,9.484 183.782,17.869 C183.782,25.908 189.748,34.561 202.848,34.561 C207.292503,34.6291501 211.676558,33.5254624 215.559,31.361 L215.959,31.161 L215.959,22.713 L214.9,23.217 Z M98.146,34.149 L107.469,34.149 L107.469,1.407 L98.146,1.407 L98.146,34.149 Z M121.691,13.7 L113.091,13.7 L107.5,20.864 L121.688,20.864 L121.688,34.149 L131.012,34.149 L131.012,1.407 L121.688,1.407 L121.688,13.7 L121.691,13.7 Z M81.205,26.584 C75.033,26.584 70.723,22.944 70.723,17.732 C70.723,12.574 75.109,8.971 81.389,8.971 C85.0973706,9.07725625 88.7134213,10.1518325 91.878,12.088 L92.978,12.699 L92.978,4.063 L92.619,3.85 C89.0151259,1.86821945 84.9483149,0.882409556 80.837,0.994 C67.926,0.994 61.171,9.484 61.171,17.869 C61.171,25.908 67.137,34.561 80.237,34.561 C84.6815034,34.6291501 89.0655578,33.5254624 92.948,31.361 L93.348,31.161 L93.348,22.713 L92.292,23.213 C88.032,25.244 85.22,26.584 81.205,26.584 Z" id="Techtic_logo.svg"></path>
        </g>
    </g>
</svg>