<svg width="2373" height="805" viewBox="0 0 2373 805" fill="none" xmlns="http://www.w3.org/2000/svg">
<g clip-path="url(#clip0)">
<path d="M698 217.4L393 41.2C388.2 38.5 382.6 38.5 378.2 41.2L254.9 112.9V147.2L385.6 71.1L675.7 238.7V573.8L632.3 599L595.6 620.3V654.3L613.9 643.6L632.3 632.9L698 595C702.7 592.3 705.4 587.6 705.4 582.3V230.1C705.4 224.8 702.7 220 698 217.4Z" fill="#4867AE"/>
<path d="M95.2 573.8V238.7L157.4 202.9L177.2 191.4L194.4 181.6V147.3L177.2 157.4L157.4 168.9L73 217.4C68.6 220.1 65.6 224.8 65.6 230.1V582.4C65.6 587.7 68.6 592.5 73 595.1L378.3 771.3C380.4 772.7 383 773.3 385.7 773.3C388.1 773.3 390.7 772.7 393.1 771.3L577.2 665V631L385.6 741.4L95.2 573.8Z" fill="#4867AE"/>
<path d="M744.4 381.5C749.2 370.3 755.9 360.5 764.3 352.1C772.7 343.7 782.6 337 793.9 332.2C805.3 327.4 817.3 325 830 325C843 325 855 327.4 866.3 332.2C877.5 337 887.3 343.7 895.9 352.1C904.5 360.5 911.2 370.3 916 381.5C920.8 392.7 923.3 404.8 923.3 417.8V511.1H886.4V417.8C886.4 410.1 884.9 402.8 882 396C879.1 389.2 875.1 383.3 870 378.2C864.9 373.1 858.9 369.1 852 366.2C845.1 363.3 837.8 361.8 830 361.8C822.2 361.8 815 363.3 808.3 366.2C801.5 369.1 795.5 373.1 790.5 378.2C785.4 383.3 781.4 389.2 778.5 396C775.6 402.8 774.1 410 774.1 417.8V511.1H737.2V417.8C737.2 404.8 739.6 392.7 744.4 381.5Z" fill="#91949B"/>
<path d="M1081.6 445.2L1107.7 471.3L1094.9 484.2C1086.1 493 1076 499.8 1064.6 504.5C1053.3 509.2 1041.4 511.5 1029 511.5C1016.6 511.5 1004.6 509.2 993.3 504.5C982 499.8 971.9 493 963 484.2C953.9 475.1 947.1 464.8 942.7 453.3C938.3 441.8 936.1 430.2 936.1 418.3C936.1 406.4 938.3 394.8 942.7 383.5C947.1 372.2 953.9 361.9 963 352.8C972.1 343.7 982.4 336.8 993.9 332.3C1005.4 327.7 1017 325.5 1028.9 325.5C1040.8 325.5 1052.5 327.8 1063.9 332.3C1075.4 336.9 1085.6 343.7 1094.8 352.8L1107.6 365.6L1004.4 468.8C1014.9 474.1 1026 475.8 1037.7 474C1049.4 472.2 1059.7 466.9 1068.6 458.1L1081.6 445.2ZM989.2 378.4C978.2 389.5 972.6 402.7 972.6 418.2C972.6 426.8 974.6 434.9 978.4 442.6C981.7 439.3 986.7 434.3 993.5 427.5C1000.3 420.7 1007.4 413.6 1015.1 406C1022.7 398.4 1030 391.2 1037 384.3C1044.1 377.4 1049.5 372 1053.4 368.1C1042.9 362.9 1031.8 361.1 1020 362.7C1008.3 364.3 998 369.6 989.2 378.4Z" fill="#91949B"/>
<path d="M1147.5 351.9C1156.6 342.8 1166.9 335.9 1178.4 331.4C1189.9 326.8 1201.5 324.6 1213.4 324.6C1225.3 324.6 1237 326.9 1248.5 331.4C1260 335.9 1270.2 342.8 1279.4 351.9L1292.3 364.8L1266.6 390.9L1253.3 378C1247.8 372.5 1241.6 368.3 1234.6 365.6C1227.7 362.8 1220.7 361.4 1213.5 361.4C1206.3 361.4 1199.3 362.8 1192.4 365.6C1185.5 368.3 1179.3 372.5 1173.8 378C1168.3 383.2 1164.1 389.3 1161.4 396.2C1158.6 403.1 1157.3 410.2 1157.3 417.3C1157.3 424.5 1158.7 431.5 1161.4 438.4C1164.1 445.3 1168.3 451.5 1173.8 457.1C1184.8 468.1 1198.1 473.7 1213.6 473.7C1221.1 473.7 1228.3 472.3 1235.2 469.6C1242.1 466.9 1248.2 462.7 1253.5 457.2L1266.8 444.3L1292.5 470.4L1279.6 483.3C1270.5 492.4 1260.2 499.3 1248.7 503.8C1237.2 508.4 1225.5 510.6 1213.6 510.6C1201.7 510.6 1190 508.3 1178.6 503.8C1167.1 499.3 1156.9 492.4 1147.7 483.3C1138.6 474.2 1131.8 463.9 1127.4 452.6C1123 441.3 1120.7 429.6 1120.7 417.6C1120.7 405.6 1122.9 393.9 1127.4 382.6C1131.6 371.3 1138.4 361 1147.5 351.9Z" fill="#91949B"/>
<path d="M1418.2 473.8V510.7H1399.9C1387.2 510.7 1375.2 508.3 1363.9 503.5C1352.5 498.7 1342.6 492 1334.1 483.4C1325.5 474.8 1318.8 464.9 1314 453.6C1309.2 442.3 1306.7 430.2 1306.7 417.5V249.9H1343.6V361.8H1418.2V398.7H1343.6V417.3C1343.6 425.1 1345 432.4 1347.9 439.3C1350.8 446.2 1354.8 452.2 1359.9 457.3C1365 462.4 1371 466.4 1377.9 469.4C1384.8 472.3 1392.1 473.7 1399.9 473.7H1418.2V473.8Z" fill="#91949B"/>
<path d="M329.7 391.3C331.2 389.2 332.1 387.2 333.3 385.1C334.5 383 335.7 380.7 336.3 378.3C341.3 367.4 343.7 355.5 343.7 342.8V324.5H306.7V342.8C306.7 348.1 306.1 353.5 304.3 358.2C304 360.6 303.1 362.6 302.2 364.7C299.5 371.5 295.4 377.7 290.4 382.8C285.3 387.8 279.1 392 272.6 394.6C265.8 397.6 258.4 399 250.7 399C240.3 399 230.3 400.8 220.8 404C211 407.3 202.4 412 194.4 417.9V147L177.2 157.1L157.4 168.6V510.6H194.4V491.9C194.4 488 194.7 484.5 195.6 481C196.2 477.1 197.1 473.6 198.6 470.1C201.6 463.3 205.7 457.3 210.8 452.3C212.6 450.5 214.3 449 216.4 447.6C220 444.7 224.4 442.3 228.8 440.2C235.6 437.5 243 436.1 250.7 436.1C258.4 436.1 265.8 437.6 272.6 440.2C279.1 443.2 285.3 447.3 290.4 452.4C295.4 457.4 299.6 463.3 302.2 470.2C305.2 477 306.6 484.4 306.6 492.1V510.8H343.6V492.1C343.6 488.2 343.3 484.7 343 481.2C341.8 469.9 338.3 459.6 333.2 449.8C326.7 436.8 317.2 426.1 305.7 417.5C315.5 410.2 323.5 401.6 329.7 391.3Z" fill="#4867AE"/>
<path d="M377.1 324.4V510.6H413.5V324.4H377.1Z" fill="#4867AE"/>
<path d="M625.2 381.5C620.5 370.3 613.7 360.5 605.1 351.9C596.5 343.6 586.8 336.8 575.5 332.1C564.2 327.4 552.1 324.7 539.4 324.7C526.7 324.7 514.5 327.4 503.3 332.1C491.8 336.8 482 343.6 473.7 351.9C465.4 360.2 458.9 369.7 454.1 380.6C453.8 380.9 453.5 381.2 453.5 381.5C448.8 392.5 446.4 404.6 446.4 417.6V510.9H483V417.6C483 412 483.9 406.4 485.7 401.3C486 399.5 486.6 397.8 487.5 396C490.5 389.2 494.3 383.3 499.6 378C504.6 372.9 510.5 369.1 517.4 366.2C524.2 363.2 531.3 361.8 539.3 361.8C547 361.8 554.1 363.3 561.2 366.2C568 369.2 573.9 373 579.3 378C584.3 383.3 588.2 389.2 591.1 396C594.1 402.5 595.5 409.9 595.5 417.6V654.2L613.8 643.5L632.2 632.8V417.6C632.3 404.6 629.9 392.4 625.2 381.5Z" fill="#4867AE"/>
<path d="M1628.27 318.965H1695.02C1721.02 318.965 1740.37 322.847 1753.06 330.612C1765.84 338.289 1772.37 350.285 1772.64 366.6C1772.82 377.331 1770.22 386.492 1764.85 394.082C1759.48 401.673 1752.32 406.558 1743.37 408.74L1743.39 410.048C1755.31 413.189 1763.99 418.424 1769.43 425.752C1774.88 433.081 1777.69 442.591 1777.89 454.281C1778.18 471.643 1771.86 485.341 1758.94 495.374C1746.1 505.32 1728.43 510.293 1705.91 510.293H1631.44L1628.27 318.965ZM1681.19 392.381H1696.76C1704.18 392.381 1709.87 390.854 1713.83 387.801C1717.88 384.747 1719.86 380.21 1719.76 374.191C1719.58 363.459 1711.37 358.094 1695.14 358.094H1680.62L1681.19 392.381ZM1681.81 430.202L1682.48 470.378H1700.67C1716.81 470.378 1724.77 463.573 1724.55 449.963C1724.44 443.594 1722.18 438.708 1717.76 435.306C1713.43 431.903 1707.16 430.202 1698.96 430.202H1681.81ZM1925.67 510.293H1812.06L1808.89 318.965H1922.5L1923.19 360.449H1861.28L1861.78 390.549H1919.1L1919.79 432.034H1862.46L1863.06 468.153H1924.97L1925.67 510.293ZM2043.6 510.293H1991.9L1989.43 361.235H1942.7L1942 318.965H2087.02L2087.72 361.235H2041.13L2043.6 510.293ZM2234.95 510.293L2224.93 474.435H2162.76L2153.67 510.293H2096.87L2156.12 318.179H2225.09L2291.5 510.293H2234.95ZM2213.5 432.034L2204.73 400.626C2202.7 393.646 2200.19 384.616 2197.22 373.536C2194.33 362.456 2192.41 354.517 2191.45 349.718C2190.74 354.168 2189.29 361.496 2187.11 371.704C2185.01 381.912 2180.24 402.022 2172.79 432.034H2213.5Z" fill="#25508E"/>
</g>
<defs>
<clipPath id="clip0">
<rect width="2373" height="805" fill="white"/>
</clipPath>
</defs>
</svg>
